<mxfile host="app.diagrams.net" modified="2024-02-26T21:14:34.050Z" agent="Mozilla/5.0 (Windows NT 10.0; Win64; x64; rv:122.0) Gecko/20100101 Firefox/122.0" version="23.1.4" etag="oEO9C8gh5WBTJ0rVMb6p" type="github">
  <diagram name="Page-1" id="RRtdL3MB7W_Pla-lku_n">
    <mxGraphModel>
      <root>
        <mxCell id="0" />
        <mxCell id="1" parent="0" />
      </root>
    </mxGraphModel>
  </diagram>
</mxfile>
